<?xml version="1.0" encoding="UTF-8"?>
<svg xmlns="http://www.w3.org/2000/svg" width="496" height="745" viewBox="0 0 496 745">
  <g id="a" data-name="Laurels-World">
    <g id="b" data-name="Laurel-1">
      <path id="c" data-name="L1-A1" d="M340.932,147.902l-31.629,76.353c-12.722-5.267-26.269-8.949-40.398-10.782l10.787-81.922c21.414,2.784,41.95,8.362,61.24,16.35Z" fill="none" stroke="#f4c245" stroke-miterlimit="10" stroke-width="10"/>
      <path id="d" data-name="L1-A2" d="M395.818,179.618l-50.298,65.547c-11.03-8.459-23.189-15.521-36.217-20.91l31.629-76.353c19.741,8.178,38.172,18.882,54.886,31.716Z" fill="none" stroke="#f4c245" stroke-miterlimit="10" stroke-width="10"/>
      <path id="e" data-name="L1-A3" d="M440.673,224.411l-65.547,50.298c-8.541-11.088-18.499-21.026-29.606-29.543l50.298-65.547c16.826,12.912,31.92,27.981,44.856,44.793Z" fill="none" stroke="#f4c245" stroke-miterlimit="10" stroke-width="10"/>
      <path id="f" data-name="L1-A4" d="M472.477,279.277l-76.353,31.624c-5.423-13.023-12.509-25.173-20.997-36.193l65.547-50.298c12.863,16.704,23.597,35.131,31.803,54.867Z" fill="none" stroke="#f4c245" stroke-miterlimit="10" stroke-width="10"/>
      <path id="g" data-name="L1-A5" d="M488.914,340.541l-81.926,10.782c-1.858-14.139-5.563-27.695-10.865-40.422l76.353-31.624c8.018,19.294,13.624,39.84,16.438,61.264Z" fill="none" stroke="#f4c245" stroke-miterlimit="10" stroke-width="10"/>
      <path id="h" data-name="L1-A6" d="M491,372.5c0,10.671-.689,21.176-2.023,31.483l-81.922-10.787c.873-6.776,1.324-13.683,1.324-20.696,0-7.178-.47-14.245-1.392-21.176l81.926-10.782c1.378,10.457,2.086,21.128,2.086,31.959Z" fill="none" stroke="#f4c245" stroke-miterlimit="10" stroke-width="10"/>
      <path id="i" data-name="L1-A7" d="M488.977,403.983c-2.774,21.443-8.343,42.013-16.331,61.327l-76.353-31.629c5.272-12.751,8.939-26.327,10.763-40.485l81.922,10.787Z" fill="none" stroke="#f4c245" stroke-miterlimit="10" stroke-width="10"/>
      <path id="j" data-name="L1-A8" d="M472.646,465.31c-8.178,19.775-18.892,38.23-31.735,54.973l-65.547-50.298c8.473-11.054,15.54-23.247,20.929-36.304l76.353,31.629Z" fill="none" stroke="#f4c245" stroke-miterlimit="10" stroke-width="10"/>
      <path id="k" data-name="L1-A9" d="M440.911,520.284c-12.931,16.855-28.025,31.968-44.86,44.919l-50.298-65.547c11.112-8.556,21.075-18.538,29.611-29.669l65.547,50.298Z" fill="none" stroke="#f4c245" stroke-miterlimit="10" stroke-width="10"/>
      <path id="l" data-name="L1-A10" d="M396.051,565.202c-16.729,12.873-35.179,23.616-54.949,31.823l-31.624-76.353c13.052-5.418,25.231-12.514,36.275-21.016l50.298,65.547Z" fill="none" stroke="#f4c245" stroke-miterlimit="10" stroke-width="10"/>
      <path id="m" data-name="L1-A11" d="M341.101,597.025c-19.319,8.018-39.894,13.62-61.347,16.418l-10.787-81.926c14.168-1.843,27.753-5.544,40.51-10.845l31.624,76.353Z" fill="none" stroke="#f4c245" stroke-miterlimit="10" stroke-width="10"/>
      <path id="n" data-name="L1-A12" d="M279.755,613.443c-10.394,1.358-20.992,2.057-31.755,2.057s-21.361-.698-31.755-2.057l10.787-81.926c6.863,.902,13.862,1.363,20.968,1.363s14.105-.461,20.968-1.363l10.787,81.926Z" fill="none" stroke="#f4c245" stroke-miterlimit="10" stroke-width="10"/>
      <path id="o" data-name="L1-A13" d="M227.032,531.517l-10.787,81.926c-21.453-2.799-42.028-8.401-61.347-16.418l31.624-76.353c12.756,5.301,26.342,9.002,40.51,10.845Z" fill="none" stroke="#f4c245" stroke-miterlimit="10" stroke-width="10"/>
      <path id="p" data-name="L1-A14" d="M186.522,520.672l-31.624,76.353c-19.77-8.207-38.22-18.95-54.949-31.823l50.298-65.547c11.044,8.503,23.223,15.599,36.275,21.016Z" fill="none" stroke="#f4c245" stroke-miterlimit="10" stroke-width="10"/>
      <path id="q" data-name="L1-A15" d="M150.247,499.655l-50.298,65.547c-16.835-12.95-31.93-28.064-44.86-44.919l65.547-50.298c8.537,11.131,18.499,21.113,29.611,29.669Z" fill="none" stroke="#f4c245" stroke-miterlimit="10" stroke-width="10"/>
      <path id="r" data-name="L1-A16" d="M120.636,469.986l-65.547,50.298c-12.844-16.743-23.558-35.199-31.736-54.973l76.353-31.629c5.389,13.057,12.456,25.251,20.929,36.304Z" fill="none" stroke="#f4c245" stroke-miterlimit="10" stroke-width="10"/>
      <path id="s" data-name="L1-A17" d="M99.707,433.682l-76.353,31.629c-7.988-19.314-13.557-39.884-16.331-61.327l81.922-10.787c1.824,14.158,5.491,27.734,10.763,40.485Z" fill="none" stroke="#f4c245" stroke-miterlimit="10" stroke-width="10"/>
      <path id="t" data-name="L1-A18" d="M87.62,372.5c0,7.014,.451,13.92,1.324,20.696l-81.922,10.787c-1.334-10.307-2.023-20.813-2.023-31.483,0-10.831,.708-21.501,2.086-31.959l81.926,10.782c-.922,6.931-1.392,13.998-1.392,21.176Z" fill="none" stroke="#f4c245" stroke-miterlimit="10" stroke-width="10"/>
      <path id="u" data-name="L1-A19" d="M99.877,310.901c-5.301,12.727-9.007,26.284-10.865,40.422l-81.926-10.782c2.813-21.424,8.42-41.97,16.438-61.264l76.353,31.624Z" fill="none" stroke="#f4c245" stroke-miterlimit="10" stroke-width="10"/>
      <path id="v" data-name="L1-A20" d="M120.874,274.708c-8.488,11.02-15.574,23.17-20.997,36.193l-76.353-31.624c8.207-19.736,18.94-38.162,31.803-54.867l65.547,50.298Z" fill="none" stroke="#f4c245" stroke-miterlimit="10" stroke-width="10"/>
      <path id="w" data-name="L1-A21" d="M150.48,245.165c-11.107,8.517-21.065,18.455-29.606,29.543l-65.547-50.298c12.936-16.811,28.03-31.881,44.856-44.793l50.298,65.547Z" fill="none" stroke="#f4c245" stroke-miterlimit="10" stroke-width="10"/>
      <path id="x" data-name="L1-A22" d="M186.697,224.255c-13.028,5.389-25.188,12.451-36.217,20.91l-50.298-65.547c16.714-12.834,35.145-23.538,54.886-31.716l31.629,76.353Z" fill="none" stroke="#f4c245" stroke-miterlimit="10" stroke-width="10"/>
      <path id="y" data-name="L1-A23" d="M227.095,213.473c-14.129,1.833-27.676,5.515-40.398,10.782l-31.629-76.353c19.29-7.988,39.826-13.566,61.24-16.35l10.787,81.922Z" fill="none" stroke="#f4c245" stroke-miterlimit="10" stroke-width="10"/>
      <path id="a`" data-name="L1-A24" d="M279.692,131.552l-10.787,81.922c-6.844-.892-13.818-1.353-20.905-1.353s-14.061,.461-20.905,1.353l-10.787-81.922c10.375-1.353,20.953-2.052,31.692-2.052s21.317,.698,31.692,2.052Z" fill="none" stroke="#f4c245" stroke-miterlimit="10" stroke-width="10"/>
    </g>
    <g id="aa" data-name="Laurel-2">
      <path id="ab" data-name="L2-A1" d="M279.294,215.176l-16.35,82.213c-4.836-.96-9.832-1.46-14.944-1.46s-10.108,.5-14.944,1.46l-16.35-82.213c10.123-2.008,20.585-3.056,31.294-3.056s21.172,1.048,31.294,3.056Z" fill="none" stroke="#47bf4f" stroke-miterlimit="10" stroke-width="10"/>
      <path id="ac" data-name="L2-A2" d="M337.11,239.136l-46.563,69.689c-8.216-5.5-17.558-9.453-27.603-11.437l16.35-82.213c21.045,4.157,40.607,12.436,57.816,23.96Z" fill="none" stroke="#47bf4f" stroke-miterlimit="10" stroke-width="10"/>
      <path id="ad" data-name="L2-A3" d="M381.364,283.39l-69.689,46.563c-5.592-8.347-12.781-15.535-21.128-21.128l46.563-69.689c17.49,11.709,32.546,26.764,44.254,44.254Z" fill="none" stroke="#47bf4f" stroke-miterlimit="10" stroke-width="10"/>
      <path id="ae" data-name="L2-A4" d="M405.324,341.206l-82.213,16.35c-1.984-10.045-5.937-19.387-11.437-27.603l69.689-46.563c11.524,17.209,19.804,36.77,23.96,57.816Z" fill="none" stroke="#47bf4f" stroke-miterlimit="10" stroke-width="10"/>
      <path id="af" data-name="L2-A5" d="M408.38,372.5c0,10.709-1.048,21.172-3.056,31.294l-82.213-16.35c.96-4.836,1.46-9.832,1.46-14.944s-.5-10.108-1.46-14.944l82.213-16.35c2.008,10.123,3.056,20.585,3.056,31.294Z" fill="none" stroke="#47bf4f" stroke-miterlimit="10" stroke-width="10"/>
      <path id="ag" data-name="L2-A6" d="M405.324,403.794c-4.157,21.045-12.436,40.607-23.96,57.816l-69.689-46.563c5.5-8.216,9.453-17.558,11.437-27.603l82.213,16.35Z" fill="none" stroke="#47bf4f" stroke-miterlimit="10" stroke-width="10"/>
      <path id="ah" data-name="L2-A7" d="M381.364,461.61c-11.709,17.49-26.764,32.546-44.254,44.254l-46.563-69.689c8.347-5.592,15.536-12.781,21.128-21.128l69.689,46.563Z" fill="none" stroke="#47bf4f" stroke-miterlimit="10" stroke-width="10"/>
      <path id="ai" data-name="L2-A8" d="M337.11,505.864c-17.209,11.524-36.77,19.804-57.816,23.96l-16.35-82.213c10.045-1.984,19.387-5.937,27.603-11.437l46.563,69.689Z" fill="none" stroke="#47bf4f" stroke-miterlimit="10" stroke-width="10"/>
      <path id="aj" data-name="L2-A9" d="M279.294,529.824c-10.123,2.008-20.585,3.056-31.294,3.056s-21.172-1.048-31.294-3.056l16.35-82.213c4.836,.96,9.832,1.46,14.944,1.46s10.108-.5,14.944-1.46l16.35,82.213Z" fill="none" stroke="#47bf4f" stroke-miterlimit="10" stroke-width="10"/>
      <path id="ak" data-name="L2-A10" d="M233.056,447.612l-16.35,82.213c-21.045-4.157-40.607-12.436-57.816-23.96l46.563-69.689c8.216,5.5,17.558,9.453,27.603,11.437Z" fill="none" stroke="#47bf4f" stroke-miterlimit="10" stroke-width="10"/>
      <path id="al" data-name="L2-A11" d="M205.453,436.175l-46.563,69.689c-17.49-11.709-32.546-26.764-44.254-44.254l69.689-46.563c5.592,8.347,12.781,15.536,21.128,21.128Z" fill="none" stroke="#47bf4f" stroke-miterlimit="10" stroke-width="10"/>
      <path id="am" data-name="L2-A12" d="M184.325,415.047l-69.689,46.563c-11.524-17.209-19.804-36.77-23.96-57.816l82.213-16.35c1.984,10.045,5.937,19.387,11.437,27.603Z" fill="none" stroke="#47bf4f" stroke-miterlimit="10" stroke-width="10"/>
      <path id="an" data-name="L2-A13" d="M171.428,372.5c0,5.112,.5,10.108,1.46,14.944l-82.213,16.35c-2.008-10.123-3.056-20.585-3.056-31.294s1.048-21.172,3.056-31.294l82.213,16.35c-.96,4.836-1.46,9.832-1.46,14.944Z" fill="none" stroke="#47bf4f" stroke-miterlimit="10" stroke-width="10"/>
      <path id="ao" data-name="L2-A14" d="M184.325,329.953c-5.5,8.216-9.453,17.558-11.437,27.603l-82.213-16.35c4.157-21.045,12.436-40.607,23.96-57.816l69.689,46.563Z" fill="none" stroke="#47bf4f" stroke-miterlimit="10" stroke-width="10"/>
      <path id="ap" data-name="L2-A15" d="M205.453,308.825c-8.347,5.592-15.536,12.781-21.128,21.128l-69.689-46.563c11.709-17.49,26.764-32.545,44.254-44.254l46.563,69.689Z" fill="none" stroke="#47bf4f" stroke-miterlimit="10" stroke-width="10"/>
      <path id="aq" data-name="L2-A16" d="M233.056,297.388c-10.045,1.984-19.387,5.937-27.603,11.437l-46.563-69.689c17.209-11.524,36.77-19.804,57.816-23.96l16.35,82.213Z" fill="none" stroke="#47bf4f" stroke-miterlimit="10" stroke-width="10"/>
    </g>
    <g id="ar" data-name="Laurel-3">
      <path id="as" data-name="L3-A1" d="M277.31,301.739l-19.964,48.202c-2.876-1.193-6.034-1.853-9.347-1.853s-6.47,.66-9.347,1.853l-19.964-48.202c9.026-3.744,18.926-5.811,29.31-5.811s20.284,2.066,29.31,5.811Z" fill="none" stroke="#f4c245" stroke-linejoin="round" stroke-width="10"/>
      <path id="at" data-name="L3-A2" d="M318.761,343.19l-48.202,19.964c-2.474-5.966-7.246-10.739-13.212-13.212l19.964-48.202c18.717,7.76,33.69,22.733,41.451,41.451Z" fill="none" stroke="#f4c245" stroke-linejoin="round" stroke-width="10"/>
      <path id="au" data-name="L3-A3" d="M324.572,372.5c0,10.384-2.066,20.284-5.811,29.31l-48.202-19.964c1.193-2.876,1.853-6.034,1.853-9.347s-.66-6.47-1.853-9.347l48.202-19.964c3.744,9.026,5.811,18.926,5.811,29.31Z" fill="none" stroke="#f4c245" stroke-linejoin="round" stroke-width="10"/>
      <path id="av" data-name="L3-A4" d="M318.761,401.81c-7.76,18.717-22.733,33.69-41.451,41.451l-19.964-48.202c5.966-2.474,10.739-7.246,13.212-13.212l48.202,19.964Z" fill="none" stroke="#f4c245" stroke-linejoin="round" stroke-width="10"/>
      <path id="aw" data-name="L3-A5" d="M277.31,443.261c-9.026,3.744-18.926,5.811-29.31,5.811s-20.284-2.066-29.31-5.811l19.964-48.202c2.876,1.193,6.034,1.853,9.347,1.853s6.47-.66,9.347-1.853l19.964,48.202Z" fill="none" stroke="#f4c245" stroke-linejoin="round" stroke-width="10"/>
      <path id="ax" data-name="L3-A6" d="M238.653,395.059l-19.964,48.202c-18.717-7.76-33.69-22.733-41.451-41.451l48.202-19.964c2.474,5.966,7.246,10.739,13.212,13.212Z" fill="none" stroke="#f4c245" stroke-linejoin="round" stroke-width="10"/>
      <path id="ay" data-name="L3-A7" d="M223.588,372.5c0,3.313,.66,6.47,1.853,9.347l-48.202,19.964c-3.744-9.026-5.811-18.926-5.811-29.31s2.066-20.284,5.811-29.31l48.202,19.964c-1.193,2.876-1.853,6.034-1.853,9.347Z" fill="none" stroke="#f4c245" stroke-linejoin="round" stroke-width="10"/>
      <path id="b`" data-name="L3-A8" d="M238.653,349.941c-5.966,2.474-10.739,7.246-13.212,13.212l-48.202-19.964c7.76-18.717,22.733-33.69,41.451-41.451l19.964,48.202Z" fill="none" stroke="#f4c245" stroke-linejoin="round" stroke-width="10"/>
    </g>
    <g id="ba" data-name="Laurel-4">
      <path id="bb" data-name="L4-A1" d="M272.41,372.5c0,3.31-.66,6.47-1.85,9.35-2.47,5.96-7.25,10.74-13.21,13.21-2.88,1.19-6.04,1.85-9.35,1.85s-6.47-.66-9.35-1.85c-5.96-2.47-10.74-7.25-13.21-13.21-1.19-2.88-1.85-6.04-1.85-9.35s.66-6.47,1.85-9.35c2.47-5.96,7.25-10.74,13.21-13.21,2.88-1.19,6.04-1.85,9.35-1.85s6.47,.66,9.35,1.85c5.96,2.47,10.74,7.25,13.21,13.21,1.19,2.88,1.85,6.04,1.85,9.35Z" fill="none" stroke="#47bf4f" stroke-miterlimit="10" stroke-width="10"/>
    </g>
  </g>
  <g id="bc" data-name="Cup-Bottom">
    <path id="bd" data-name="Cup-Bottom" d="M13.48,734.36c0-68.36,234.37-129.36,234.37-217,0,87.64,234.37,148.64,234.37,217H13.48Zm111.219,0c0-68.36,123.151-129.36,123.151-217m0,0c0,87.64,123.149,148.64,123.149,217" fill="none" stroke="#47bf4f" stroke-miterlimit="10" stroke-width="10"/>
  </g>
  <g id="be" data-name="Cup-Top-Left">
    <path id="bf" data-name="Cup-Top-Left" d="M247.85,517.86c0-68.86-123.999-128.54-123.999-166.94V10.36H9.85V350.92c0,38.4,238,98.08,238,166.94h0Z" fill="none" stroke="#637dea" stroke-miterlimit="10" stroke-width="10"/>
  </g>
  <g id="bg" data-name="Cup-Top-Middle">
    <path id="bh" data-name="Cup-Top-Middle" d="M371.848,10.36V350.92c0,38.4-123.999,98.08-123.999,166.94,0-68.86-123.998-128.54-123.998-166.94V10.36h247.997Z" fill="none" stroke="#637dea" stroke-miterlimit="10" stroke-width="10"/>
  </g>
  <g id="bi" data-name="Cup-Top-Right">
    <path id="bj" data-name="Cup-Top-Right" d="M247.85,517.86c0-68.86,238-128.54,238-166.94V10.36h-114.001V350.92c0,38.4-123.999,98.08-123.999,166.94h0Z" fill="none" stroke="#637dea" stroke-miterlimit="10" stroke-width="10"/>
  </g>
  <g id="bk" data-name="Rim">
    <g id="bl" data-name="Rim">
      <path d="M248,139.5c31.459,0,61.972,6.159,90.691,18.306,27.744,11.735,52.663,28.536,74.065,49.938,21.402,21.401,38.203,46.32,49.938,74.065,12.147,28.719,18.306,59.232,18.306,90.691s-6.159,61.972-18.306,90.691c-11.735,27.744-28.536,52.663-49.938,74.065s-46.32,38.203-74.065,49.938c-28.719,12.147-59.232,18.306-90.691,18.306s-61.972-6.159-90.691-18.306c-27.744-11.735-52.663-28.536-74.065-49.938-21.402-21.402-38.203-46.32-49.938-74.065-12.147-28.719-18.306-59.232-18.306-90.691s6.159-61.972,18.306-90.691c11.735-27.744,28.536-52.663,49.938-74.065,21.401-21.402,46.32-38.203,74.065-49.938,28.719-12.147,59.232-18.306,90.691-18.306m0-10C113.795,129.5,5,238.295,5,372.5s108.795,243,243,243,243-108.795,243-243-108.795-243-243-243h0Z" fill="#637dea"/>
    </g>
  </g>
</svg>