<?xml version="1.0" encoding="iso-8859-1"?>
<!-- Generator: Adobe Illustrator 26.2.1, SVG Export Plug-In . SVG Version: 6.00 Build 0)  -->
<svg version="1.1" xmlns="http://www.w3.org/2000/svg" xmlns:xlink="http://www.w3.org/1999/xlink" x="0px" y="0px" width="496px"
	 height="745px" viewBox="0 0 496 745" enable-background="new 0 0 496 745" xml:space="preserve">
<g id="CupBottomLeft_00000157294369613277822510000009736973195974487947_">
	<g id="CupBottomLeft">
		<path fill="none" stroke="#47BF4F" stroke-width="20" stroke-miterlimit="10" d="M247.838,518.434
			c-0.91,86.05-112.3,150.8-123.14,215.93H11.478C32.278,669.234,246.078,604.484,247.838,518.434z"/>
		<path fill="none" stroke="#47BF4F" stroke-width="20" stroke-miterlimit="10" d="M11.478,734.364c-1.07,3.33-1.63,6.66-1.63,10"/>
	</g>
</g>
<g id="CupBottomMid_00000096763208445610556320000014524544612468423056_">
	<path id="CupBottomMid" fill="none" stroke="#47BF4F" stroke-width="20" stroke-miterlimit="10" d="M370.999,734.364h-246.3
		c10.84-65.13,122.23-129.88,123.14-215.93c0.01-0.36,0.01-0.71,0.01-1.07c0,0.36,0,0.71,0.01,1.07
		C248.768,604.484,360.159,669.234,370.999,734.364z"/>
</g>
<g id="CupBottomRight_00000031896039295389308050000002376116587799058077_">
	<g id="CupBottomRight">
		<path fill="none" stroke="#47BF4F" stroke-width="20" stroke-miterlimit="10" d="M484.218,734.364h-113.22
			c-10.84-65.13-122.23-129.88-123.14-215.93C249.619,604.484,463.419,669.234,484.218,734.364z"/>
		<path fill="none" stroke="#47BF4F" stroke-width="20" stroke-miterlimit="10" d="M485.848,744.364c0-3.34-0.56-6.67-1.63-10"/>
	</g>
</g>
<g id="CupTopLeft">
	
		<path id="CupTopLeft_00000091715974731484796880000007873636497534907801_" fill="none" stroke="#637DEA" stroke-width="20" stroke-miterlimit="10" d="
		M242.568,486.674c-0.57,1.77-1.08,1.58-1.54,3.42c-4.23-7.73-10.27-12.93-17.68-19.69c0-0.01-0.01-0.01-0.01-0.02
		c-60.76-55.45-213.49-81.06-213.49-119.46V10.364h114v340.56c0,36.9,73.45,61.98,107.29,113.07
		C235.799,471.024,239.708,478.554,242.568,486.674z"/>
</g>
<g id="CupTopMid">
	
		<path id="CupTopMid_00000074436564585878347360000006165417004332320957_" fill="none" stroke="#637DEA" stroke-width="20" stroke-miterlimit="10" d="
		M371.848,10.364v340.56c0,36.9-73.45,61.98-107.29,113.07c-4.66,7.03-8.57,14.56-11.43,22.68c-0.5,1.42-0.97,2.86-1.4,4.32
		c-2.4,8.01-3.78,16.58-3.87,25.81c-0.01,0.35-0.01,0.7-0.01,1.06c0-0.36,0-0.71-0.01-1.06c-0.09-9.23-1.47-17.8-3.87-25.81
		c-0.43-1.46-0.9-2.9-1.4-4.32c-2.86-8.12-6.77-15.65-11.43-22.68c-33.84-51.09-107.29-76.17-107.29-113.07V10.364H371.848z"/>
</g>
<g id="CupTopRight">
	
		<path id="CupTopRight_00000136369080174512467840000016387822519498739080_" fill="none" stroke="#637DEA" stroke-width="20" stroke-miterlimit="10" d="
		M485.848,10.364c0,0,0,292.61,0,340.56c0,38.4-152.73,64.01-213.49,119.46c0,0.01-0.01,0.01-0.01,0.02
		c-7.41,6.76-13.45,11.96-17.68,19.69c-0.46-1.84-0.97-1.65-1.54-3.42c2.86-8.12,6.77-15.65,11.43-22.68
		c33.84-51.09,107.29-76.17,107.29-113.07V10.364H485.848z"/>
	<g>
	</g>
	<g>
	</g>
	<g>
	</g>
	<g>
	</g>
	<g>
	</g>
	<g>
	</g>
	<g>
	</g>
	<g>
	</g>
	<g>
	</g>
	<g>
	</g>
	<g>
	</g>
	<g>
	</g>
	<g>
	</g>
	<g>
	</g>
	<g>
	</g>
</g>
</svg>
