<?xml version="1.0" encoding="UTF-8"?>
<svg xmlns="http://www.w3.org/2000/svg" width="496" height="745" viewBox="0 0 496 745">
  <g id="a" data-name="Cup-Bottom">
    <path d="M13.48,734.36c0-68.36,234.37-129.36,234.37-217,0,87.64,234.37,148.64,234.37,217H13.48Z" fill="none" stroke="#47bf4f" stroke-miterlimit="10" stroke-width="10"/>
    <path id="b" data-name="ML-Line-B" d="M247.85,517.36c0,87.64-123.151,148.64-123.151,217" fill="none" stroke="#47bf4f" stroke-miterlimit="10" stroke-width="10"/>
    <path id="c" data-name="MR-Line-B" d="M247.85,517.36c0,87.64,123.149,148.64,123.149,217" fill="none" stroke="#47bf4f" stroke-miterlimit="10" stroke-width="10"/>
  </g>
  <g id="d" data-name="Cup-Left">
    <path id="e" data-name="Cup-Left" d="M123.851,10.36V350.92c0,38.4,123.998,98.08,123.998,166.94,0-68.86-238-128.54-238-166.94V10.36H123.851Z" fill="none" stroke="#637dea" stroke-miterlimit="10" stroke-width="10"/>
  </g>
  <g id="f" data-name="Cup-Middle">
    <path id="g" data-name="Cup-Middle" d="M247.85,517.86c0-68.86,123.999-128.54,123.999-166.94V10.36H123.851V350.92c0,38.4,123.998,98.08,123.998,166.94Z" fill="none" stroke="#637dea" stroke-miterlimit="10" stroke-width="10"/>
  </g>
  <g id="h" data-name="Cup-Right">
    <path id="i" data-name="Cup-Right" d="M247.85,517.86c0-68.86,238-128.54,238-166.94V10.36h-114.001V350.92c0,38.4-123.999,98.08-123.999,166.94Z" fill="none" stroke="#637dea" stroke-miterlimit="10" stroke-width="10"/>
  </g>
</svg>