<?xml version="1.0" encoding="UTF-8"?>
<svg id="a" data-name="Laurels-World" xmlns="http://www.w3.org/2000/svg" width="496" height="745" viewBox="0 0 496 745">
  <g id="b" data-name="L1">
    <path id="c" data-name="L1-A1" d="M339.02,152.523l-30.978,74.782c-12.461-5.159-25.729-8.765-39.567-10.56l10.565-80.236c20.973,2.727,41.087,8.19,59.98,16.014Z" fill="none" stroke="#f4c245" stroke-miterlimit="10" stroke-width="9.794"/>
    <path id="d" data-name="L1-A2" d="M392.776,183.587l-49.263,64.198c-10.803-8.285-22.712-15.202-35.472-20.479l30.978-74.782c19.335,8.009,37.386,18.494,53.757,31.063Z" fill="none" stroke="#f4c245" stroke-miterlimit="10" stroke-width="9.794"/>
    <path id="e" data-name="L1-A3" d="M436.709,227.458l-64.198,49.263c-8.366-10.86-18.118-20.593-28.997-28.935l49.263-64.198c16.479,12.646,31.263,27.406,43.933,43.871Z" fill="none" stroke="#f4c245" stroke-miterlimit="10" stroke-width="9.794"/>
    <path id="f" data-name="L1-A4" d="M467.858,281.195l-74.782,30.973c-5.311-12.755-12.252-24.655-20.565-35.448l64.198-49.263c12.598,16.361,23.111,34.408,31.149,53.738Z" fill="none" stroke="#f4c245" stroke-miterlimit="10" stroke-width="9.794"/>
    <path id="g" data-name="L1-A5" d="M483.957,341.199l-80.241,10.56c-1.819-13.848-5.449-27.125-10.641-39.591l74.782-30.973c7.853,18.897,13.344,39.021,16.099,60.004Z" fill="none" stroke="#f4c245" stroke-miterlimit="10" stroke-width="9.794"/>
    <path id="h" data-name="L1-A6" d="M486,372.5c0,10.451-.675,20.741-1.981,30.835l-80.236-10.565c.855-6.636,1.297-13.401,1.297-20.27,0-7.031-.461-13.952-1.363-20.741l80.241-10.56c1.349,10.242,2.043,20.693,2.043,31.301Z" fill="none" stroke="#f4c245" stroke-miterlimit="10" stroke-width="9.794"/>
    <path id="i" data-name="L1-A7" d="M484.019,403.335c-2.717,21.002-8.171,41.149-15.995,60.065l-74.782-30.978c5.164-12.489,8.755-25.786,10.541-39.652l80.236,10.565Z" fill="none" stroke="#f4c245" stroke-miterlimit="10" stroke-width="9.794"/>
    <path id="j" data-name="L1-A8" d="M468.024,463.401c-8.009,19.368-18.503,37.443-31.082,53.842l-64.198-49.263c8.299-10.826,15.221-22.769,20.498-35.557l74.782,30.978Z" fill="none" stroke="#f4c245" stroke-miterlimit="10" stroke-width="9.794"/>
    <path id="k" data-name="L1-A9" d="M436.942,517.243c-12.665,16.508-27.448,31.311-43.937,43.994l-49.263-64.198c10.883-8.38,20.641-18.156,29.002-29.059l64.198,49.263Z" fill="none" stroke="#f4c245" stroke-miterlimit="10" stroke-width="9.794"/>
    <path id="l" data-name="L1-A10" d="M393.004,561.237c-16.384,12.608-34.455,23.13-53.818,31.168l-30.973-74.782c12.784-5.306,24.712-12.256,35.529-20.584l49.263,64.198Z" fill="none" stroke="#f4c245" stroke-miterlimit="10" stroke-width="9.794"/>
    <path id="m" data-name="L1-A11" d="M339.186,592.405c-18.921,7.853-39.073,13.339-60.084,16.08l-10.565-80.241c13.876-1.805,27.182-5.43,39.676-10.622l30.973,74.782Z" fill="none" stroke="#f4c245" stroke-miterlimit="10" stroke-width="9.794"/>
    <path id="n" data-name="L1-A12" d="M279.102,608.486c-10.18,1.33-20.56,2.014-31.102,2.014s-20.921-.684-31.102-2.014l10.565-80.241c6.722,.884,13.577,1.335,20.536,1.335s13.814-.451,20.536-1.335l10.565,80.241Z" fill="none" stroke="#f4c245" stroke-miterlimit="10" stroke-width="9.794"/>
    <path id="o" data-name="L1-A13" d="M227.464,528.245l-10.565,80.241c-21.011-2.741-41.163-8.228-60.084-16.08l30.973-74.782c12.494,5.192,25.8,8.817,39.676,10.622Z" fill="none" stroke="#f4c245" stroke-miterlimit="10" stroke-width="9.794"/>
    <path id="p" data-name="L1-A14" d="M187.787,517.623l-30.973,74.782c-19.363-8.038-37.434-18.56-53.818-31.168l49.263-64.198c10.817,8.328,22.745,15.278,35.529,20.584Z" fill="none" stroke="#f4c245" stroke-miterlimit="10" stroke-width="9.794"/>
    <path id="q" data-name="L1-A15" d="M152.258,497.039l-49.263,64.198c-16.489-12.684-31.273-27.486-43.937-43.994l64.198-49.263c8.361,10.902,18.118,20.679,29.002,29.059Z" fill="none" stroke="#f4c245" stroke-miterlimit="10" stroke-width="9.794"/>
    <path id="r" data-name="L1-A16" d="M123.257,467.98l-64.198,49.263c-12.579-16.399-23.073-34.474-31.083-53.842l74.782-30.978c5.278,12.788,12.199,24.731,20.498,35.557Z" fill="none" stroke="#f4c245" stroke-miterlimit="10" stroke-width="9.794"/>
    <path id="s" data-name="L1-A17" d="M102.758,432.423l-74.782,30.978c-7.824-18.916-13.278-39.063-15.995-60.065l80.236-10.565c1.786,13.867,5.378,27.163,10.541,39.652Z" fill="none" stroke="#f4c245" stroke-miterlimit="10" stroke-width="9.794"/>
    <path id="t" data-name="L1-A18" d="M90.92,372.5c0,6.869,.442,13.634,1.297,20.27l-80.236,10.565c-1.306-10.095-1.981-20.384-1.981-30.835,0-10.608,.694-21.059,2.043-31.301l80.241,10.56c-.903,6.788-1.363,13.71-1.363,20.741Z" fill="none" stroke="#f4c245" stroke-miterlimit="10" stroke-width="9.794"/>
    <path id="u" data-name="L1-A19" d="M102.925,312.169c-5.192,12.465-8.822,25.743-10.641,39.591l-80.241-10.56c2.755-20.983,8.247-41.106,16.099-60.004l74.782,30.973Z" fill="none" stroke="#f4c245" stroke-miterlimit="10" stroke-width="9.794"/>
    <path id="v" data-name="L1-A20" d="M123.489,276.72c-8.313,10.793-15.254,22.693-20.565,35.448l-74.782-30.973c8.038-19.33,18.551-37.377,31.149-53.738l64.198,49.263Z" fill="none" stroke="#f4c245" stroke-miterlimit="10" stroke-width="9.794"/>
    <path id="w" data-name="L1-A21" d="M152.486,247.785c-10.879,8.342-20.631,18.076-28.997,28.935l-64.198-49.263c12.67-16.465,27.453-31.225,43.933-43.871l49.263,64.198Z" fill="none" stroke="#f4c245" stroke-miterlimit="10" stroke-width="9.794"/>
    <path id="x" data-name="L1-A22" d="M187.958,227.306c-12.76,5.278-24.669,12.195-35.472,20.479l-49.263-64.198c16.37-12.57,34.422-23.054,53.757-31.063l30.978,74.782Z" fill="none" stroke="#f4c245" stroke-miterlimit="10" stroke-width="9.794"/>
    <path id="y" data-name="L1-A23" d="M227.525,216.745c-13.838,1.796-27.106,5.401-39.567,10.56l-30.978-74.782c18.893-7.824,39.006-13.287,59.98-16.014l10.565,80.236Z" fill="none" stroke="#f4c245" stroke-miterlimit="10" stroke-width="9.794"/>
    <path id="a`" data-name="L1-A24" d="M279.04,136.509l-10.565,80.236c-6.703-.874-13.534-1.325-20.475-1.325s-13.772,.451-20.475,1.325l-10.565-80.236c10.161-1.325,20.522-2.009,31.04-2.009s20.878,.684,31.04,2.009Z" fill="none" stroke="#f4c245" stroke-miterlimit="10" stroke-width="9.794"/>
  </g>
  <g id="aa" data-name="L2">
    <path id="ab" data-name="L2-A1" d="M278.65,218.413l-16.014,80.521c-4.736-.941-9.629-1.43-14.636-1.43s-9.9,.489-14.636,1.43l-16.014-80.521c9.914-1.967,20.161-2.993,30.65-2.993s20.736,1.026,30.65,2.993Z" fill="none" stroke="#47bf4f" stroke-miterlimit="10" stroke-width="9.794"/>
    <path id="ac" data-name="L2-A2" d="M335.276,241.88l-45.605,68.255c-8.047-5.387-17.197-9.259-27.035-11.202l16.014-80.521c20.612,4.071,39.771,12.18,56.626,23.467Z" fill="none" stroke="#47bf4f" stroke-miterlimit="10" stroke-width="9.794"/>
    <path id="ad" data-name="L2-A3" d="M378.62,285.224l-68.255,45.605c-5.477-8.176-12.518-15.216-20.693-20.693l45.605-68.255c17.13,11.468,31.876,26.213,43.344,43.344Z" fill="none" stroke="#47bf4f" stroke-miterlimit="10" stroke-width="9.794"/>
    <path id="ae" data-name="L2-A4" d="M402.087,341.85l-80.521,16.014c-1.943-9.838-5.815-18.988-11.202-27.035l68.255-45.605c11.287,16.855,19.396,36.014,23.467,56.626Z" fill="none" stroke="#47bf4f" stroke-miterlimit="10" stroke-width="9.794"/>
    <path id="af" data-name="L2-A5" d="M405.08,372.5c0,10.489-1.026,20.736-2.993,30.65l-80.521-16.014c.941-4.736,1.43-9.629,1.43-14.636s-.489-9.9-1.43-14.636l80.521-16.014c1.967,9.914,2.993,20.161,2.993,30.65Z" fill="none" stroke="#47bf4f" stroke-miterlimit="10" stroke-width="9.794"/>
    <path id="ag" data-name="L2-A6" d="M402.087,403.15c-4.071,20.612-12.18,39.771-23.467,56.626l-68.255-45.605c5.387-8.047,9.259-17.197,11.202-27.035l80.521,16.014Z" fill="none" stroke="#47bf4f" stroke-miterlimit="10" stroke-width="9.794"/>
    <path id="ah" data-name="L2-A7" d="M378.62,459.776c-11.468,17.13-26.213,31.876-43.344,43.344l-45.605-68.255c8.176-5.477,15.216-12.518,20.693-20.693l68.255,45.605Z" fill="none" stroke="#47bf4f" stroke-miterlimit="10" stroke-width="9.794"/>
    <path id="ai" data-name="L2-A8" d="M335.276,503.12c-16.855,11.287-36.014,19.396-56.626,23.467l-16.014-80.521c9.838-1.943,18.988-5.815,27.035-11.202l45.605,68.255Z" fill="none" stroke="#47bf4f" stroke-miterlimit="10" stroke-width="9.794"/>
    <path id="aj" data-name="L2-A9" d="M278.65,526.587c-9.914,1.967-20.161,2.993-30.65,2.993s-20.736-1.026-30.65-2.993l16.014-80.521c4.736,.941,9.629,1.43,14.636,1.43s9.9-.489,14.636-1.43l16.014,80.521Z" fill="none" stroke="#47bf4f" stroke-miterlimit="10" stroke-width="9.794"/>
    <path id="ak" data-name="L2-A10" d="M233.364,446.066l-16.014,80.521c-20.612-4.071-39.771-12.18-56.626-23.467l45.605-68.255c8.047,5.387,17.197,9.259,27.035,11.202Z" fill="none" stroke="#47bf4f" stroke-miterlimit="10" stroke-width="9.794"/>
    <path id="al" data-name="L2-A11" d="M206.329,434.865l-45.605,68.255c-17.13-11.468-31.876-26.213-43.344-43.344l68.255-45.605c5.477,8.176,12.518,15.216,20.693,20.693Z" fill="none" stroke="#47bf4f" stroke-miterlimit="10" stroke-width="9.794"/>
    <path id="am" data-name="L2-A12" d="M185.635,414.171l-68.255,45.605c-11.287-16.855-19.396-36.014-23.467-56.626l80.521-16.014c1.943,9.838,5.815,18.988,11.202,27.035Z" fill="none" stroke="#47bf4f" stroke-miterlimit="10" stroke-width="9.794"/>
    <path id="an" data-name="L2-A13" d="M173.004,372.5c0,5.007,.489,9.9,1.43,14.636l-80.521,16.014c-1.967-9.914-2.993-20.161-2.993-30.65s1.026-20.736,2.993-30.65l80.521,16.014c-.941,4.736-1.43,9.629-1.43,14.636Z" fill="none" stroke="#47bf4f" stroke-miterlimit="10" stroke-width="9.794"/>
    <path id="ao" data-name="L2-A14" d="M185.635,330.829c-5.387,8.047-9.259,17.197-11.202,27.035l-80.521-16.014c4.071-20.612,12.18-39.771,23.467-56.626l68.255,45.605Z" fill="none" stroke="#47bf4f" stroke-miterlimit="10" stroke-width="9.794"/>
    <path id="ap" data-name="L2-A15" d="M206.329,310.135c-8.176,5.477-15.216,12.518-20.693,20.693l-68.255-45.605c11.468-17.13,26.213-31.876,43.344-43.344l45.605,68.255Z" fill="none" stroke="#47bf4f" stroke-miterlimit="10" stroke-width="9.794"/>
    <path id="aq" data-name="L2-A16" d="M233.364,298.934c-9.838,1.943-18.988,5.815-27.035,11.202l-45.605-68.255c16.855-11.287,36.014-19.396,56.626-23.467l16.014,80.521Z" fill="none" stroke="#47bf4f" stroke-miterlimit="10" stroke-width="9.794"/>
  </g>
  <g id="ar" data-name="L3">
    <path id="as" data-name="L3-A1" d="M276.707,303.195l-19.553,47.21c-2.817-1.169-5.91-1.815-9.154-1.815s-6.337,.646-9.154,1.815l-19.553-47.21c8.841-3.667,18.536-5.691,28.707-5.691s19.867,2.024,28.707,5.691Z" fill="none" stroke="#f4c245" stroke-linejoin="round" stroke-width="9.794"/>
    <path id="at" data-name="L3-A2" d="M317.305,343.793l-47.21,19.553c-2.423-5.843-7.097-10.518-12.94-12.94l19.553-47.21c18.332,7.601,32.997,22.266,40.598,40.598Z" fill="none" stroke="#f4c245" stroke-linejoin="round" stroke-width="9.794"/>
    <path id="au" data-name="L3-A3" d="M322.996,372.5c0,10.171-2.024,19.867-5.691,28.707l-47.21-19.553c1.169-2.817,1.815-5.91,1.815-9.154s-.646-6.337-1.815-9.154l47.21-19.553c3.667,8.841,5.691,18.536,5.691,28.707Z" fill="none" stroke="#f4c245" stroke-linejoin="round" stroke-width="9.794"/>
    <path id="av" data-name="L3-A4" d="M317.305,401.207c-7.601,18.332-22.266,32.997-40.598,40.598l-19.553-47.21c5.843-2.423,10.518-7.097,12.94-12.94l47.21,19.553Z" fill="none" stroke="#f4c245" stroke-linejoin="round" stroke-width="9.794"/>
    <path id="aw" data-name="L3-A5" d="M276.707,441.805c-8.841,3.667-18.536,5.691-28.707,5.691s-19.867-2.024-28.707-5.691l19.553-47.21c2.817,1.169,5.91,1.815,9.154,1.815s6.337-.646,9.154-1.815l19.553,47.21Z" fill="none" stroke="#f4c245" stroke-linejoin="round" stroke-width="9.794"/>
    <path id="ax" data-name="L3-A6" d="M238.846,394.595l-19.553,47.21c-18.332-7.601-32.997-22.266-40.598-40.598l47.21-19.553c2.423,5.843,7.097,10.518,12.94,12.94Z" fill="none" stroke="#f4c245" stroke-linejoin="round" stroke-width="9.794"/>
    <path id="ay" data-name="L3-A7" d="M224.091,372.5c0,3.245,.646,6.337,1.815,9.154l-47.21,19.553c-3.667-8.841-5.691-18.536-5.691-28.707s2.024-19.867,5.691-28.707l47.21,19.553c-1.169,2.817-1.815,5.91-1.815,9.154Z" fill="none" stroke="#f4c245" stroke-linejoin="round" stroke-width="9.794"/>
    <path id="b`" data-name="L3-A8" d="M238.846,350.405c-5.843,2.423-10.518,7.097-12.94,12.94l-47.21-19.553c7.601-18.332,22.266-32.997,40.598-40.598l19.553,47.21Z" fill="none" stroke="#f4c245" stroke-linejoin="round" stroke-width="9.794"/>
  </g>
  <g id="ba" data-name="L4">
    <path id="bb" data-name="L4-A1" d="M271.908,372.5c0,3.242-.646,6.337-1.812,9.158-2.419,5.837-7.101,10.519-12.938,12.938-2.821,1.166-5.916,1.812-9.158,1.812s-6.337-.646-9.158-1.812c-5.837-2.419-10.519-7.101-12.938-12.938-1.166-2.821-1.812-5.916-1.812-9.158s.646-6.337,1.812-9.158c2.419-5.837,7.101-10.519,12.938-12.938,2.821-1.166,5.916-1.812,9.158-1.812s6.337,.646,9.158,1.812c5.837,2.419,10.519,7.101,12.938,12.938,1.166,2.821,1.812,5.916,1.812,9.158Z" fill="none" stroke="#47bf4f" stroke-miterlimit="10" stroke-width="9.794"/>
  </g>
</svg>