<?xml version="1.0" encoding="UTF-8"?>
<svg id="a" data-name="Rim" xmlns="http://www.w3.org/2000/svg" width="496" height="745" viewBox="0 0 496 745">
  <circle id="b" data-name="Rim" cx="248" cy="372.5" r="238" fill="none" stroke="#637dea" stroke-miterlimit="10" stroke-width="9.794"/>
  <path id="c" data-name="Moons" d="M190.67,422.103c-27.151,27.151-71.174,27.151-98.325,0-27.151-27.151-27.151-71.174,0-98.325,15.481-15.481,36.445-22.143,56.644-19.961-1.637,1.223-3.204,2.588-4.691,4.075-17.188,17.188-17.188,45.061,0,62.259,17.197,17.188,45.07,17.188,62.259,0,1.487-1.487,2.852-3.054,4.075-4.691,2.183,20.198-4.48,41.162-19.961,56.644Zm180.078,34.923c-1.223,1.637-2.587,3.204-4.066,4.691-17.197,17.188-45.07,17.188-62.267,0-17.188-17.197-17.188-45.07,0-62.259,1.487-1.487,3.054-2.852,4.691-4.075-20.198-2.183-41.163,4.471-56.644,19.961-27.151,27.151-27.151,71.174,0,98.325,27.151,27.151,71.174,27.151,98.325,0,15.49-15.481,22.143-36.445,19.961-56.644Zm-.766-184.452c-1.223,1.637-2.579,3.204-4.066,4.691-17.197,17.188-45.07,17.188-62.259,0s-17.197-45.07,0-62.259c1.479-1.487,3.045-2.852,4.682-4.075-20.198-2.183-41.154,4.48-56.644,19.961-27.151,27.151-27.151,71.174,0,98.325,27.16,27.151,71.174,27.151,98.334,0,15.481-15.481,22.135-36.445,19.952-56.644Z" fill="none" stroke="#f22c2c" stroke-miterlimit="10" stroke-width="9.794"/>
</svg>